<svg width="9" height="10" viewBox="0 0 9 10" fill="none" xmlns="http://www.w3.org/2000/svg">
<path d="M8.75035 1.33478L1.39035 8.69478L6.98535 8.69478C7.08481 8.69478 7.18019 8.73429 7.25052 8.80461C7.32084 8.87494 7.36035 8.97032 7.36035 9.06978C7.36035 9.16923 7.32084 9.26462 7.25052 9.33494C7.18019 9.40527 7.08481 9.44478 6.98535 9.44478L0.485352 9.44478C0.385895 9.44478 0.290513 9.40527 0.220186 9.33494C0.14986 9.26462 0.110352 9.16923 0.110352 9.06978L0.110352 2.56978C0.110352 2.47032 0.14986 2.37494 0.220186 2.30461C0.290513 2.23429 0.385895 2.19478 0.485352 2.19478C0.584808 2.19478 0.68019 2.23429 0.750516 2.30461C0.820843 2.37494 0.860352 2.47032 0.860352 2.56978L0.860352 8.16478L8.22035 0.804778C8.29144 0.738538 8.38546 0.702476 8.48261 0.704191C8.57976 0.705905 8.67246 0.74526 8.74116 0.813967C8.80987 0.882674 8.84922 0.975366 8.85094 1.07252C8.85265 1.16967 8.81659 1.26369 8.75035 1.33478Z" fill="white"/>
</svg>
