<svg width="33" height="33" viewBox="0 0 33 33" fill="none" xmlns="http://www.w3.org/2000/svg">
<rect x="0.511719" y="0.0695801" width="32" height="32" rx="6" fill="#0B6172"/>
<path d="M20.7767 12.3345L13.4167 19.6945L19.0117 19.6945C19.1112 19.6945 19.2066 19.734 19.2769 19.8043C19.3472 19.8747 19.3867 19.97 19.3867 20.0695C19.3867 20.169 19.3472 20.2643 19.2769 20.3347C19.2066 20.405 19.1112 20.4445 19.0117 20.4445L12.5117 20.4445C12.4123 20.4445 12.3169 20.405 12.2466 20.3347C12.1762 20.2643 12.1367 20.169 12.1367 20.0695L12.1367 13.5695C12.1367 13.47 12.1762 13.3747 12.2466 13.3043C12.3169 13.234 12.4123 13.1945 12.5117 13.1945C12.6112 13.1945 12.7066 13.234 12.7769 13.3043C12.8472 13.3747 12.8867 13.47 12.8867 13.5695L12.8867 19.1645L20.2467 11.8045C20.3178 11.7383 20.4118 11.7022 20.509 11.7039C20.6061 11.7056 20.6988 11.745 20.7675 11.8137C20.8362 11.8824 20.8756 11.9751 20.8773 12.0722C20.879 12.1694 20.843 12.2634 20.7767 12.3345Z" fill="white"/>
</svg>
